<svg width="78" height="45" viewBox="0 0 78 45" fill="none" xmlns="http://www.w3.org/2000/svg">
<path fill-rule="evenodd" clip-rule="evenodd" d="M0 19.1562V0H4.62054V8.93097H4.72165C5.67204 7.48107 7.16841 6.36344 9.57473 6.36344C13.9526 6.36344 17.0768 10.1191 17.0768 15.526C17.0768 21.1443 14.0841 24.6885 9.70617 24.6885C7.34818 24.6885 5.65297 23.7079 4.62054 22.1755V28.0872H4.72165C5.67204 26.6373 7.16841 25.5197 9.57473 25.5197C13.9526 25.5197 17.0768 29.2753 17.0768 34.6822C17.0768 40.3006 14.0841 43.8448 9.70617 43.8448C7.26952 43.8448 5.54061 42.7976 4.51944 41.1766H4.44866V43.3414H0V24.1851V19.1562ZM8.52323 10.0788C11.1014 10.0788 12.3956 12.3141 12.3956 15.526C12.3956 18.8688 11.0711 20.8322 8.69511 20.8322C6.11691 20.8322 4.51944 18.8084 4.51944 15.6267C4.51944 12.4147 5.60127 10.0788 8.52323 10.0788ZM28.4652 22.245H28.536C28.6371 23.0303 28.7989 23.8358 29.082 24.1882H33.5306V24.0171C33.1262 23.7049 32.924 22.9296 32.924 21.6106V12.7804C32.924 8.72266 30.8109 6.38672 25.5837 6.38672C20.4981 6.38672 18.2131 9.065 18.0817 12.1058H22.1866C22.3281 10.4444 23.3796 9.66913 25.5534 9.66913C27.4946 9.66913 28.4753 10.4847 28.4753 11.7332C28.4753 13.0522 27.1509 13.2939 24.2592 13.6966C20.3869 14.2303 17.2627 15.4486 17.2627 19.2747C17.2627 22.7182 19.7701 24.5809 23.3392 24.5809C26.3218 24.5809 27.5856 23.564 28.4652 22.245ZM28.5663 15.4486V18.0564C28.5663 19.7479 27.1104 21.369 24.4614 21.369C22.8235 21.369 21.7417 20.7951 21.7417 19.174C21.7417 17.5429 22.9246 17.0092 25.3411 16.4655L25.5931 16.4063L25.5931 16.4063C26.6731 16.1532 27.8067 15.8875 28.5663 15.4486ZM34.5355 6.87002H38.974V9.19589H39.0752C40.0256 7.60504 41.7241 6.38672 44.1406 6.38672C46.3447 6.38672 48.114 7.60504 48.9633 9.42748H49.0341C50.2271 7.53455 52.0571 6.38672 54.2613 6.38672C57.9314 6.38672 60.0041 8.75287 60.0041 12.5387V24.2084H55.3835V13.3241C55.3835 11.3607 54.4028 10.3437 52.7042 10.3437C50.7731 10.3437 49.5801 11.8339 49.5801 14.1296V24.2084H44.9595V13.3241C44.9595 11.3607 43.9788 10.3437 42.2802 10.3437C40.4097 10.3437 39.156 11.8339 39.156 14.1296V24.2084H34.5355V6.87002ZM8.52323 29.2351C11.1014 29.2351 12.3956 31.4703 12.3956 34.6822C12.3956 38.0251 11.0711 39.9885 8.69511 39.9885C6.11691 39.9885 4.51944 37.9646 4.51944 34.7829C4.51944 31.571 5.60127 29.2351 8.52323 29.2351ZM29.0432 43.5281V41.4942H28.9421C27.7491 43.0851 26.3943 44.0013 23.9475 44.0013C20.0751 44.0013 17.9014 41.5345 17.9014 37.7487V26.1797H22.4815V36.9734C22.4815 39.0073 23.4015 40.1148 25.3731 40.1148C27.5469 40.1148 28.8714 38.4937 28.8714 36.188V26.1797H33.4919V43.5281H29.0432ZM38.8022 37.7424H34.5254C34.7984 41.4275 37.6192 43.8642 42.6745 43.8642C47.0221 43.8642 50.0148 41.7699 50.0148 38.2861C50.0148 34.2284 46.7896 33.4128 43.8676 32.8087C43.4601 32.7246 43.0574 32.6507 42.669 32.5794C40.6869 32.2158 39.0752 31.9201 39.0752 30.6741C39.0752 29.4256 40.2682 28.751 42.0679 28.751C44.0395 28.751 45.2325 29.4256 45.4347 31.2883H49.6104C49.2667 27.8045 46.7188 25.5391 42.1387 25.5391C38.1652 25.5391 35.041 27.3313 35.041 31.0869C35.041 34.8828 38.0944 35.7286 41.2186 36.3327C41.5234 36.3935 41.8254 36.449 42.1203 36.5033C44.1239 36.872 45.7987 37.1802 45.7987 38.6284C45.7987 39.8467 44.6461 40.622 42.6038 40.622C40.5311 40.622 39.1055 39.736 38.8022 37.7424ZM49.8652 34.6714C49.8652 29.5263 53.3635 25.5391 58.4592 25.5391C64.0605 25.5391 67.0533 29.7981 67.0533 35.9904H54.415C54.7588 38.6586 56.245 40.3199 58.8637 40.3199C60.6634 40.3199 61.7149 39.5044 62.2305 38.1854H66.7803C66.1332 41.2664 63.3831 43.8641 58.9041 43.8641C53.131 43.8742 49.8652 39.8467 49.8652 34.6714ZM54.4858 32.8187H62.2305C62.0991 30.6238 60.633 29.0933 58.53 29.0933C56.0833 29.0933 54.8902 30.5533 54.4858 32.8187ZM72.3164 29.16H72.2153V26.3911H67.7666V43.7295H72.3872V35.2718C72.3872 31.6269 74.5609 30.036 77.584 30.3381H77.6851V26.3106C77.4121 26.2099 77.0987 26.1797 76.5932 26.1797C74.5609 26.1797 73.3679 27.1966 72.3164 29.16Z" fill="white"/>
</svg>
