<svg width="20" height="20" viewBox="0 0 20 20" fill="none" xmlns="http://www.w3.org/2000/svg">
<path fill-rule="evenodd" clip-rule="evenodd" d="M8.5 12.5937C8.98365 12.532 9.48383 12.5 10 12.5V17.5L20 9L10 0.5V5.5C6.06221 5.5 1.35869 8.18008 0.244873 15.8855C0.0858503 16.9856 0 18.1882 0 19.5C0.412168 18.4009 0.975341 17.3773 1.67915 16.4707C3.27228 14.4185 5.58601 12.9657 8.5 12.5937ZM2.23561 13.7367C4.2438 12.0457 6.86693 11 10 11H11.5V14.2563L17.6839 9L11.5 3.74366V7H10C8.13895 7 6.06243 7.72006 4.43538 9.55705C3.55644 10.5494 2.77197 11.9104 2.23561 13.7367Z" fill="#1D1D1D"/>
</svg>
