<svg width="14" height="12" viewBox="0 0 14 12" fill="none" xmlns="http://www.w3.org/2000/svg">
<path d="M1.92422 0.0908785C2.28832 0.288369 2.42338 0.74363 2.22589 1.10773C1.53841 2.3752 1.33036 3.84786 1.63983 5.25617C1.94929 6.66448 2.75557 7.91424 3.91109 8.77673C5.06661 9.63921 6.49408 10.0567 7.93225 9.95285C8.79156 9.89079 9.62036 9.64506 10.3658 9.2398L9.97813 8.12648C9.92393 7.97084 10.0707 7.82012 10.2277 7.87015L13.2542 8.83445C13.3812 8.87492 13.4338 9.02601 13.3594 9.13664L11.5865 11.7722C11.4945 11.9089 11.2859 11.882 11.2317 11.7263L10.8644 10.6715C9.99007 11.1103 9.03143 11.3774 8.0403 11.449C6.2426 11.5788 4.45826 11.0569 3.01386 9.9788C1.56946 8.90069 0.561612 7.33848 0.174783 5.5781C-0.212047 3.81771 0.0480119 1.97689 0.907363 0.392555C1.10485 0.0284529 1.56011 -0.106612 1.92422 0.0908785Z" fill="white"/>
</svg>
