<svg width="16" height="21" viewBox="0 0 16 21" fill="none" xmlns="http://www.w3.org/2000/svg">
<path fill-rule="evenodd" clip-rule="evenodd" d="M8 0C7.34339 0 6.69321 0.129329 6.08658 0.380602C5.47995 0.631876 4.92876 1.00017 4.46447 1.46447C4.00017 1.92876 3.63188 2.47996 3.3806 3.08658C3.12933 3.69321 3 4.34339 3 5L0 5L0.75 15.5L0 21H16L15.25 15.5L16 5H13C13 4.34339 12.8707 3.69321 12.6194 3.08658C12.3681 2.47995 11.9998 1.92876 11.5355 1.46447C11.0712 1.00017 10.52 0.631876 9.91342 0.380602C9.30679 0.129329 8.65661 0 8 0ZM11.5 5C11.5 4.54037 11.4095 4.08525 11.2336 3.66061C11.0577 3.23597 10.7999 2.85013 10.4749 2.52513C10.1499 2.20012 9.76403 1.94231 9.33939 1.76642C8.91475 1.59053 8.45963 1.5 8 1.5C7.54037 1.5 7.08525 1.59053 6.66061 1.76642C6.23597 1.94231 5.85013 2.20012 5.52513 2.52513C5.20012 2.85013 4.94231 3.23597 4.76642 3.66061C4.59053 4.08525 4.5 4.54037 4.5 5L11.5 5ZM13.7427 15.5484L14.2816 19.5H1.71843L2.25728 15.5484L1.61096 6.5H14.389L13.7427 15.5484Z" fill="#1D1D1D"/>
</svg>
