<svg width="20" height="18" viewBox="0 0 20 18" fill="none" xmlns="http://www.w3.org/2000/svg">
<path fill-rule="evenodd" clip-rule="evenodd" d="M10.3044 1.63036C10.1965 1.72989 10.095 1.82918 10 1.92671C9.90502 1.82914 9.80348 1.7298 9.69546 1.63023C8.57837 0.600744 7.24592 0 5.83878 0C4.33593 0 2.93672 0.592171 1.92076 1.67833C1.04652 2.61301 0.501592 3.88244 0.501592 5.12045C0.501592 5.17828 0.501228 5.23771 0.50084 5.30106L0.500717 5.32041C0.49795 5.75661 0.494239 6.34154 0.649935 7.03776C0.809411 7.75088 1.12516 8.54052 1.71693 9.44571C3.03713 11.4652 5.55953 13.8079 9.29347 16.5955L9.99991 17.1228L10.7066 16.5954C14.4406 13.8079 16.9629 11.4652 18.2831 9.44571C18.8057 8.64631 19.1667 7.85954 19.3491 7.04927C19.5058 6.35295 19.5021 5.75932 19.4993 5.32152L19.4992 5.30051C19.4988 5.23742 19.4984 5.1783 19.4984 5.12045C19.4984 3.88244 18.9535 2.61301 18.0792 1.67833C17.0633 0.592171 15.6641 0 14.1612 0C12.7541 0 11.4215 0.60088 10.3044 1.63036ZM17.9992 5.31053L17.9994 5.33092C18.0021 5.76179 18.0016 6.20516 17.8857 6.71988C17.7516 7.31558 17.4771 7.9373 17.0276 8.62492C15.8805 10.3795 13.6014 12.5463 10 15.2506C6.39865 12.5463 4.11951 10.3795 2.97245 8.62493C2.46932 7.85532 2.23023 7.23114 2.11378 6.7104C1.99831 6.19408 1.99797 5.75772 2.00069 5.32993L2.00083 5.30788C2.0012 5.24621 2.00159 5.1829 2.00159 5.12045C2.00159 4.30272 2.3734 3.39027 3.01625 2.70299C3.73995 1.92927 4.73836 1.5 5.83878 1.5C6.80014 1.5 7.78287 1.90747 8.67838 2.73275C8.76548 2.81302 8.84779 2.89352 8.92519 2.97302L9.99998 4.07711L11.0748 2.97304C11.1522 2.89356 11.2345 2.81307 11.3216 2.73279C12.2171 1.90752 13.1999 1.5 14.1612 1.5C15.2616 1.5 16.2601 1.92928 16.9838 2.703C17.6266 3.39027 17.9984 4.30272 17.9984 5.12045C17.9984 5.18372 17.9988 5.24789 17.9992 5.31053Z" fill="#1D1D1D"/>
</svg>
