<svg width="9" height="11" viewBox="0 0 9 11" fill="none" xmlns="http://www.w3.org/2000/svg">
<path d="M0.301353 2.86187C0.0622067 2.99994 -0.0197309 3.30574 0.11834 3.54488L0.250306 3.77346C0.327929 3.9079 0.435788 4.02243 0.565342 4.10797L1.89995 4.98915C2.3882 5.31152 2.64446 5.88836 2.55637 6.46677L2.27164 8.33624C2.23745 8.56072 2.28068 8.79016 2.39421 8.98681L2.46882 9.11604C2.60689 9.35518 2.91269 9.43712 3.15183 9.29905L8.34799 6.29905C8.58713 6.16098 8.66907 5.85518 8.531 5.61604L8.45639 5.48681C8.34285 5.29016 8.16577 5.138 7.95427 5.05537L6.19289 4.36722C5.64793 4.1543 5.2765 3.64396 5.24144 3.05993L5.14562 1.46354C5.13632 1.30857 5.09107 1.1579 5.01345 1.02346L4.88148 0.794883C4.74341 0.555737 4.43761 0.473799 4.19847 0.611871L0.301353 2.86187Z" fill="white"/>
<path d="M5.60046 9.0401L6.8995 8.2901L8.1768 11H6.96081L5.60046 9.0401Z" fill="white"/>
</svg>
