<svg width="20" height="18" viewBox="0 0 20 18" fill="none" xmlns="http://www.w3.org/2000/svg">
<path fill-rule="evenodd" clip-rule="evenodd" d="M11.5001 6.99999H10.0001C8.10868 6.99999 6.24218 7.67862 4.74505 9.24088C3.74203 10.2875 2.85765 11.7816 2.26641 13.8374C4.16537 12.1247 6.70105 11 10.0001 11H11.5001V14.6868L17.9767 8.99999L11.5001 3.31323V6.99999ZM1.6877 16.7479C1.64375 16.8102 1.60039 16.8729 1.55759 16.9361C1.46409 17.0741 1.37333 17.2141 1.28524 17.3559C1.25233 17.4089 1.2198 17.4621 1.18763 17.5156C0.900762 17.9927 0.0723737 17.8 0.124951 17.2458C0.13605 17.1289 0.147863 17.0129 0.160382 16.8979C0.177921 16.7367 0.196845 16.5775 0.217125 16.4203C0.226755 16.3456 0.23669 16.2714 0.246929 16.1975C1.31194 8.51933 5.656 5.49999 10.0001 5.49999V1.65661C10.0001 1.01163 10.7603 0.667474 11.2449 1.09303L19.3943 8.24855C19.8479 8.64683 19.8479 9.35315 19.3943 9.75143L11.2449 16.907C10.7603 17.3325 10.0001 16.9884 10.0001 16.3434V12.5C9.47781 12.5 8.97809 12.5316 8.50006 12.5921C5.38995 12.986 3.19775 14.6071 1.6877 16.7479Z" fill="white"/>
</svg>
